# File created by Blade
# Date/Time:  Thu Jan 22 15:49:58 2015
# Frame Rate: 120.000 fps
#------------------------------------------------------
:FULLY-SPECIFIED
:DEGREES
2056
root 3.216048 37.119443 4.696042 -2.160946 -1.008117 3.050569
RightUpLeg 10.341589 -7.599008 -5.956405
RightLeg -5.367809 -0.000000 0.000000
RightFoot -11.807266 -13.542491 16.722968
RightToeBase 14.525712 -0.000000 -0.000000
LeftUpLeg 8.061684 4.656889 1.141563
LeftLeg -2.378279 -0.000000 0.000000
LeftFoot -6.502119 7.098115 -16.951307
LeftToeBase 8.687456 -0.000000 -0.000000
Spine 6.359044 -4.792111 -2.775953
RightShoulder -6.843034 -19.136232 -21.874156
RightArm 12.043876 0.461091 27.416367
RightForeArm 18.773351 -0.000000 22.747051
RightHand 1.172711 -0.000000 2.218874
RightHandThumb1 -24.326973 -0.000000 -32.862282
LeftShoulder -29.935674 34.425516 2.263648
LeftArm 36.626358 -28.366025 -46.028668
LeftForeArm 30.555473 -0.000000 8.160464
LeftHand -20.056695 -0.000000 -3.139402
LeftHandThumb1 -26.253704 0.000000 33.147579
Head 0.538606 10.971517 -0.299546
2057
root 3.216289 37.117958 4.708094 -2.133269 -0.963111 3.072967
RightUpLeg 10.357624 -7.581099 -5.978825
RightLeg -5.392752 -0.000000 0.000000
RightFoot -11.849062 -13.598239 16.760380
RightToeBase 14.585809 -0.000000 -0.000000
LeftUpLeg 8.020270 4.640285 1.116426
LeftLeg -2.325650 -0.000000 0.000000
LeftFoot -6.537929 7.075907 -16.958124
LeftToeBase 8.705868 -0.000000 -0.000000
Spine 6.397704 -4.722883 -2.741591
RightShoulder -7.151269 -19.172589 -22.221989
RightArm 11.478007 0.525345 26.745423
RightForeArm 18.629518 -0.000000 22.448168
RightHand 1.389367 -0.000000 2.397655
RightHandThumb1 -24.326973 -0.000000 -32.862282
LeftShoulder -30.145456 34.365532 2.548937
LeftArm 36.568648 -29.334411 -45.968220
LeftForeArm 30.848347 -0.000000 7.932263
LeftHand -20.231515 -0.000000 -2.977089
LeftHandThumb1 -26.253704 0.000000 33.147579
Head 0.592381 10.909260 -0.347021
2058
root 3.219223 37.116813 4.719094 -2.113893 -0.867843 3.113599
RightUpLeg 10.354839 -7.717958 -6.020749
RightLeg -5.360876 -0.000000 0.000000
RightFoot -11.915585 -13.615302 16.755536
RightToeBase 14.574169 -0.000000 -0.000000
LeftUpLeg 7.976149 4.565371 1.064248
LeftLeg -2.266750 -0.000000 0.000000
LeftFoot -6.545797 7.074529 -16.901872
LeftToeBase 8.657654 -0.000000 -0.000000
Spine 6.450993 -4.711473 -2.721063
RightShoulder -7.441412 -19.131576 -22.604462
RightArm 10.926638 0.594818 26.143140
RightForeArm 18.357937 -0.000000 22.134208
RightHand 1.382506 -0.000000 2.636088
RightHandThumb1 -24.326973 -0.000000 -32.862282
LeftShoulder -30.307393 34.264524 2.877307
LeftArm 36.462737 -30.207161 -45.857080
LeftForeArm 30.879461 -0.000000 7.676204
LeftHand -20.214681 -0.000000 -2.689467
LeftHandThumb1 -26.253704 0.000000 33.147579
Head 0.596869 10.814385 -0.456139
2059
root 3.218558 37.115848 4.728073 -2.070798 -0.765936 3.157346
RightUpLeg 10.334202 -7.763418 -6.058636
RightLeg -5.332054 -0.000000 0.000000
RightFoot -11.950925 -13.635658 16.698528
RightToeBase 14.528920 -0.000000 -0.000000
LeftUpLeg 7.904907 4.487934 1.014366
LeftLeg -2.213045 -0.000000 0.000000
LeftFoot -6.558863 7.062296 -16.912025
LeftToeBase 8.664038 -0.000000 -0.000000
Spine 6.482973 -4.733185 -2.731096
RightShoulder -7.720744 -19.110227 -22.959993
RightArm 10.417782 0.675613 25.581111
RightForeArm 18.258110 0.000000 21.861754
RightHand 1.493844 0.000000 2.865912
RightHandThumb1 -24.326973 -0.000000 -32.862282
LeftShoulder -30.487669 34.192435 3.175892
LeftArm 36.362149 -31.047316 -45.721123
LeftForeArm 30.959032 -0.000000 7.425642
LeftHand -20.282309 -0.000000 -2.267052
LeftHandThumb1 -26.253704 0.000000 33.147579
Head 0.579003 10.761117 -0.467117
2060
root 3.218146 37.115266 4.737218 -2.061337 -0.689255 3.167869
RightUpLeg 10.351153 -7.716159 -6.070016
RightLeg -5.318085 -0.000000 0.000000
RightFoot -12.034563 -13.680195 16.821038
RightToeBase 14.614302 -0.000000 -0.000000
LeftUpLeg 7.882744 4.430018 1.002398
LeftLeg -2.174317 -0.000000 0.000000
LeftFoot -6.576458 7.039606 -16.895493
LeftToeBase 8.726184 -0.000000 -0.000000
Spine 6.551812 -4.769100 -2.689534
RightShoulder -7.934377 -18.974808 -23.390634
RightArm 9.863143 0.779368 25.118802
RightForeArm 18.067201 -0.000000 21.646980
RightHand 1.532286 -0.000000 3.052575
RightHandThumb1 -24.326973 -0.000000 -32.862282
LeftShoulder -30.651333 34.082915 3.497049
LeftArm 36.224421 -31.835568 -45.582115
LeftForeArm 30.918596 -0.000000 7.156840
LeftHand -20.267979 -0.000000 -2.272116
LeftHandThumb1 -26.253704 0.000000 33.147579
Head 0.530149 10.758784 -0.555625
2061
root 3.216929 37.115986 4.748477 -2.063737 -0.582944 3.188226
RightUpLeg 10.390896 -7.763503 -6.093471
RightLeg -5.312391 -0.000000 0.000000
RightFoot -12.060472 -13.717382 16.827249
RightToeBase 14.592387 -0.000000 -0.000000
LeftUpLeg 7.872430 4.381467 0.987081
LeftLeg -2.144355 -0.000000 0.000000
LeftFoot -6.564333 6.993073 -16.913793
LeftToeBase 8.674922 -0.000000 -0.000000
Spine 6.625367 -4.842738 -2.670951
RightShoulder -8.145926 -18.853947 -23.794991
RightArm 9.372435 0.965437 24.699901
RightForeArm 17.941596 0.000000 21.429871
RightHand 1.579887 0.000000 3.141054
RightHandThumb1 -24.326973 -0.000000 -32.862282
LeftShoulder -30.791954 34.039064 3.795894
LeftArm 36.089145 -32.687621 -45.497637
LeftForeArm 30.911559 0.000000 7.001692
LeftHand -20.326624 -0.000000 -2.143823
LeftHandThumb1 -26.253704 0.000000 33.147579
Head 0.485524 10.709845 -0.621509
2062
root 3.213686 37.115619 4.760853 -2.024619 -0.504443 3.210728
RightUpLeg 10.391418 -7.761026 -6.098753
RightLeg -5.320602 -0.000000 0.000000
RightFoot -12.065723 -13.783423 16.753597
RightToeBase 14.488270 -0.000000 -0.000000
LeftUpLeg 7.835315 4.363665 0.971892
LeftLeg -2.130940 -0.000000 0.000000
LeftFoot -6.557616 6.931579 -16.939244
LeftToeBase 8.691451 -0.000000 -0.000000
Spine 6.633641 -4.902717 -2.663431
RightShoulder -8.380504 -18.728141 -24.185965
RightArm 8.927190 1.230842 24.346990
RightForeArm 17.670817 0.000000 21.280667
RightHand 1.404813 -0.000000 3.402229
RightHandThumb1 -24.326973 -0.000000 -32.862282
LeftShoulder -30.935530 33.954396 4.124707
LeftArm 35.872550 -33.363429 -45.289136
LeftForeArm 30.987324 -0.000000 6.768511
LeftHand -19.906422 -0.000000 -1.909514
LeftHandThumb1 -26.253704 0.000000 33.147579
Head 0.470610 10.705748 -0.617162
2063
root 3.211856 37.116817 4.770842 -2.000184 -0.420186 3.240929
RightUpLeg 10.406180 -7.760935 -6.129094
RightLeg -5.328889 -0.000000 0.000000
RightFoot -12.125937 -13.810440 16.863490
RightToeBase 14.545635 -0.000000 -0.000000
LeftUpLeg 7.811057 4.318203 0.940431
LeftLeg -2.120292 -0.000000 0.000000
LeftFoot -6.535044 6.922129 -16.986273
LeftToeBase 8.663135 -0.000000 -0.000000
Spine 6.678637 -5.010734 -2.661731
RightShoulder -8.580823 -18.569399 -24.584726
RightArm 8.511340 1.563339 24.038265
RightForeArm 17.484328 -0.000000 21.125522
RightHand 1.441081 0.000000 3.493271
RightHandThumb1 -24.326973 -0.000000 -32.862282
LeftShoulder -31.084129 33.825296 4.420435
LeftArm 35.681699 -34.101192 -45.120194
LeftForeArm 31.029927 0.000000 6.545724
LeftHand -19.884137 -0.000000 -1.984071
LeftHandThumb1 -26.253704 0.000000 33.147579
Head 0.366534 10.745466 -0.698531
2064
root 3.208884 37.117799 4.778855 -1.964698 -0.342152 3.261407
RightUpLeg 10.397200 -7.758996 -6.137000
RightLeg -5.320391 -0.000000 0.000000
RightFoot -12.122642 -13.852591 16.804970
RightToeBase 14.457084 -0.000000 -0.000000
LeftUpLeg 7.767722 4.302848 0.925997
LeftLeg -2.100677 -0.000000 0.000000
LeftFoot -6.505741 6.868384 -16.977199
LeftToeBase 8.624721 -0.000000 -0.000000
Spine 6.687969 -5.137516 -2.652354
RightShoulder -8.730642 -18.372937 -24.959877
RightArm 8.084603 2.057710 23.759847
RightForeArm 17.271018 -0.000000 21.019198
RightHand 1.367434 0.000000 3.343841
RightHandThumb1 -24.326973 -0.000000 -32.862282
LeftShoulder -31.245542 33.779622 4.723265
LeftArm 35.621968 -34.995152 -45.206389
LeftForeArm 31.354472 -0.000000 6.383802
LeftHand -19.763717 -0.000000 -2.233655
LeftHandThumb1 -26.253704 0.000000 33.147579
Head 0.320871 10.756212 -0.754427
2065
root 3.205038 37.118245 4.786593 -1.930086 -0.278483 3.281384
RightUpLeg 10.387363 -7.745056 -6.142011
RightLeg -5.319890 -0.000000 0.000000
RightFoot -12.152041 -13.921009 16.799255
RightToeBase 14.449331 -0.000000 -0.000000
LeftUpLeg 7.735947 4.289955 0.921134
LeftLeg -2.101413 -0.000000 0.000000
LeftFoot -6.469759 6.790587 -16.961368
LeftToeBase 8.640613 -0.000000 -0.000000
Spine 6.691507 -5.230406 -2.647462
RightShoulder -8.885928 -18.141533 -25.317124
RightArm 7.672306 2.552478 23.499637
RightForeArm 17.046023 0.000000 20.875016
RightHand 1.353870 -0.000000 3.195676
RightHandThumb1 -24.326973 -0.000000 -32.862282
LeftShoulder -31.376474 33.755958 5.009363
LeftArm 35.587718 -35.791156 -45.212023
LeftForeArm 31.545564 -0.000000 6.156058
LeftHand -19.799057 -0.000000 -2.058065
LeftHandThumb1 -26.253704 0.000000 33.147579
Head 0.315341 10.773612 -0.781292
